<mxfile host="app.diagrams.net" modified="2020-10-23T02:24:45.528Z" agent="5.0 (Windows NT 10.0; Win64; x64) AppleWebKit/537.36 (KHTML, like Gecko) Chrome/86.0.4240.75 Safari/537.36" etag="ULTtxk7AOTManxbWEkKU" version="13.8.1" type="github">
  <diagram name="Page-1" id="c7558073-3199-34d8-9f00-42111426c3f3">
    <mxGraphModel dx="1108" dy="394" grid="1" gridSize="10" guides="1" tooltips="1" connect="1" arrows="1" fold="1" page="1" pageScale="1" pageWidth="826" pageHeight="1169" background="#ffffff" math="0" shadow="0">
      <root>
        <mxCell id="0" />
        <mxCell id="1" parent="0" />
        <mxCell id="DOcG3cxMkQvGqaEPvv7r-101" style="edgeStyle=orthogonalEdgeStyle;rounded=0;orthogonalLoop=1;jettySize=auto;html=1;entryX=0.153;entryY=0.384;entryDx=0;entryDy=0;entryPerimeter=0;" edge="1" parent="1" source="DOcG3cxMkQvGqaEPvv7r-96" target="DOcG3cxMkQvGqaEPvv7r-98">
          <mxGeometry relative="1" as="geometry" />
        </mxCell>
        <mxCell id="DOcG3cxMkQvGqaEPvv7r-102" style="edgeStyle=orthogonalEdgeStyle;rounded=0;orthogonalLoop=1;jettySize=auto;html=1;" edge="1" parent="1" source="DOcG3cxMkQvGqaEPvv7r-96" target="DOcG3cxMkQvGqaEPvv7r-100">
          <mxGeometry relative="1" as="geometry">
            <Array as="points">
              <mxPoint x="137" y="310" />
            </Array>
          </mxGeometry>
        </mxCell>
        <mxCell id="DOcG3cxMkQvGqaEPvv7r-106" style="edgeStyle=orthogonalEdgeStyle;rounded=0;orthogonalLoop=1;jettySize=auto;html=1;" edge="1" parent="1" source="DOcG3cxMkQvGqaEPvv7r-96" target="DOcG3cxMkQvGqaEPvv7r-97">
          <mxGeometry relative="1" as="geometry">
            <mxPoint x="660" y="50" as="targetPoint" />
            <Array as="points">
              <mxPoint x="140" y="50" />
            </Array>
          </mxGeometry>
        </mxCell>
        <mxCell id="DOcG3cxMkQvGqaEPvv7r-96" value="" style="pointerEvents=1;shadow=0;dashed=0;html=1;strokeColor=none;fillColor=#505050;labelPosition=center;verticalLabelPosition=bottom;verticalAlign=top;outlineConnect=0;align=center;shape=mxgraph.office.users.online_user;" vertex="1" parent="1">
          <mxGeometry x="110" y="150" width="54" height="43" as="geometry" />
        </mxCell>
        <mxCell id="DOcG3cxMkQvGqaEPvv7r-97" value="Amazon EC2" style="outlineConnect=0;fontColor=#232F3E;gradientColor=none;strokeColor=#ffffff;fillColor=#232F3E;dashed=0;verticalLabelPosition=middle;verticalAlign=bottom;align=center;html=1;whiteSpace=wrap;fontSize=10;fontStyle=1;spacing=3;shape=mxgraph.aws4.productIcon;prIcon=mxgraph.aws4.ec2;" vertex="1" parent="1">
          <mxGeometry x="670" y="10" width="80" height="100" as="geometry" />
        </mxCell>
        <mxCell id="DOcG3cxMkQvGqaEPvv7r-98" value="" style="pointerEvents=1;shadow=0;dashed=0;html=1;strokeColor=none;fillColor=#505050;labelPosition=center;verticalLabelPosition=bottom;verticalAlign=top;outlineConnect=0;align=center;shape=mxgraph.office.users.role_group;" vertex="1" parent="1">
          <mxGeometry x="681" y="150" width="59" height="56" as="geometry" />
        </mxCell>
        <mxCell id="DOcG3cxMkQvGqaEPvv7r-99" value="Amazon EC2" style="outlineConnect=0;fontColor=#232F3E;gradientColor=none;strokeColor=#ffffff;fillColor=#232F3E;dashed=0;verticalLabelPosition=middle;verticalAlign=bottom;align=center;html=1;whiteSpace=wrap;fontSize=10;fontStyle=1;spacing=3;shape=mxgraph.aws4.productIcon;prIcon=mxgraph.aws4.ec2;" vertex="1" parent="1">
          <mxGeometry x="681" y="260" width="80" height="100" as="geometry" />
        </mxCell>
        <mxCell id="DOcG3cxMkQvGqaEPvv7r-103" style="edgeStyle=orthogonalEdgeStyle;rounded=0;orthogonalLoop=1;jettySize=auto;html=1;" edge="1" parent="1" source="DOcG3cxMkQvGqaEPvv7r-100" target="DOcG3cxMkQvGqaEPvv7r-99">
          <mxGeometry relative="1" as="geometry" />
        </mxCell>
        <mxCell id="DOcG3cxMkQvGqaEPvv7r-100" value="" style="outlineConnect=0;dashed=0;verticalLabelPosition=bottom;verticalAlign=top;align=center;html=1;shape=mxgraph.aws3.api_gateway;fillColor=#D9A741;gradientColor=none;" vertex="1" parent="1">
          <mxGeometry x="375" y="263.5" width="76.5" height="93" as="geometry" />
        </mxCell>
        <mxCell id="DOcG3cxMkQvGqaEPvv7r-107" value="web server" style="text;html=1;align=center;verticalAlign=middle;resizable=0;points=[];autosize=1;" vertex="1" parent="1">
          <mxGeometry x="750" y="40" width="70" height="20" as="geometry" />
        </mxCell>
        <mxCell id="DOcG3cxMkQvGqaEPvv7r-108" value="cloud data" style="text;html=1;align=center;verticalAlign=middle;resizable=0;points=[];autosize=1;" vertex="1" parent="1">
          <mxGeometry x="775" y="290" width="70" height="20" as="geometry" />
        </mxCell>
        <mxCell id="DOcG3cxMkQvGqaEPvv7r-109" value="api gateway" style="text;html=1;align=center;verticalAlign=middle;resizable=0;points=[];autosize=1;" vertex="1" parent="1">
          <mxGeometry x="371.5" y="356.5" width="80" height="20" as="geometry" />
        </mxCell>
        <mxCell id="DOcG3cxMkQvGqaEPvv7r-110" value="user" style="text;html=1;align=center;verticalAlign=middle;resizable=0;points=[];autosize=1;" vertex="1" parent="1">
          <mxGeometry x="100" y="193" width="40" height="20" as="geometry" />
        </mxCell>
        <mxCell id="DOcG3cxMkQvGqaEPvv7r-111" value="Authenticates" style="text;html=1;align=center;verticalAlign=middle;resizable=0;points=[];autosize=1;" vertex="1" parent="1">
          <mxGeometry x="360" y="150" width="90" height="20" as="geometry" />
        </mxCell>
        <mxCell id="DOcG3cxMkQvGqaEPvv7r-112" value="Html js css img" style="text;html=1;align=center;verticalAlign=middle;resizable=0;points=[];autosize=1;" vertex="1" parent="1">
          <mxGeometry x="310" y="20" width="100" height="20" as="geometry" />
        </mxCell>
        <mxCell id="DOcG3cxMkQvGqaEPvv7r-113" value="user role" style="text;html=1;align=center;verticalAlign=middle;resizable=0;points=[];autosize=1;" vertex="1" parent="1">
          <mxGeometry x="740" y="170" width="60" height="20" as="geometry" />
        </mxCell>
      </root>
    </mxGraphModel>
  </diagram>
</mxfile>
